<svg width="134" height="32" viewBox="0 0 134 32" fill="none" xmlns="http://www.w3.org/2000/svg">
<path d="M5.46025 28.4523C6.56624 28.5651 7.67222 28.6779 8.7782 28.8188C9.26207 28.8752 9.75977 28.988 10.2298 29.1149C10.3957 29.1713 10.6307 29.3546 10.6446 29.5097C10.6584 29.6507 10.4234 29.8199 10.2989 29.975C10.2298 30.0737 10.0916 30.1724 10.0916 30.2569C10.1054 30.3556 10.2298 30.4684 10.3404 30.5107C10.8796 30.7222 11.4049 30.6235 11.875 30.2851C12.2482 30.0032 12.3035 29.552 12.0409 29.1149C11.6261 28.3959 11.004 27.9165 10.216 27.7614C9.35885 27.5922 8.47406 27.5076 7.58927 27.4231C6.40034 27.3103 5.18376 27.2821 3.99483 27.1411C3.51096 27.0847 3.02709 26.9014 2.59852 26.6617C1.97641 26.2951 1.83816 25.6325 2.14231 24.9275C2.70912 25.0685 3.27594 25.2377 3.85658 25.3364C4.97639 25.5338 5.99942 25.2659 6.89803 24.5469C7.35425 24.1803 7.6584 23.715 7.58927 23.0947C7.53397 22.6717 7.34043 22.5871 7.00863 22.8268C6.74596 23.0101 6.49711 23.2075 6.26209 23.4189C5.5432 24.0534 4.71372 24.2508 3.78745 24.0393C3.08239 23.8842 2.40498 23.6304 1.85198 23.1229C1.09162 22.432 0.856599 21.431 1.22987 20.4723C1.50636 19.7532 1.99023 19.2033 2.62617 18.7945C2.72295 18.7381 2.91649 18.7522 3.01327 18.8086C3.31741 18.9919 3.59391 19.2315 3.89805 19.443C4.11925 19.5981 4.35427 19.6827 4.56164 19.4148C4.76902 19.147 4.72754 18.8932 4.47869 18.6676C4.29897 18.5125 4.10543 18.3715 3.93953 18.2023C3.46948 17.723 3.34506 17.0885 3.59391 16.4963C3.8151 15.9606 4.0916 15.7632 4.67224 15.7632C5.7091 15.7773 6.74596 15.7491 7.78282 15.8337C8.23904 15.876 8.73673 16.0452 9.13765 16.2849C9.70446 16.6232 9.93949 17.2154 9.85654 17.878C9.77359 18.5125 9.3865 18.9355 8.81968 19.1469C8.46023 19.2738 8.05931 19.2738 7.68604 19.3443C7.5478 19.3725 7.3266 19.443 7.29895 19.5417C7.25748 19.6545 7.35425 19.866 7.45102 19.9788C8.03166 20.585 8.9441 20.726 9.75976 20.3454C11.7644 19.4289 12.0823 16.736 10.3404 15.3684C9.60769 14.7904 8.7782 14.4802 7.85194 14.4379C6.78743 14.3956 5.72293 14.3956 4.65842 14.3533C3.51096 14.311 2.5294 13.9303 1.81051 12.9716C1.45107 12.4922 1.38194 11.9424 1.53401 11.3643C1.94876 9.86982 3.42801 8.95339 5.00404 9.24946C6.23444 9.47505 7.45102 9.81342 8.69525 9.99671C9.45562 10.1095 10.2436 10.0813 11.004 9.98261C12.027 9.85572 12.5938 9.15077 12.8427 8.16384C13.1054 7.12052 12.8842 6.20409 12.0409 5.49914C11.2114 4.79419 10.216 4.46991 9.17912 4.41351C8.28051 4.35712 7.36808 4.48401 6.46946 4.5545C6.28974 4.5686 6.06855 4.6532 5.94412 4.76599C5.79205 4.90698 5.63998 5.13256 5.6538 5.30175C5.6538 5.41454 5.95795 5.58373 6.12384 5.59783C6.66301 5.64013 7.20218 5.58373 7.74134 5.61193C8.50171 5.65423 9.28972 5.68242 10.0363 5.83751C10.4372 5.92211 10.8243 6.18999 11.1422 6.45787C11.5846 6.83854 11.8335 7.3461 11.6399 7.96646C11.474 8.48812 10.8934 8.88289 10.2436 8.8265C9.45562 8.7701 8.68143 8.61501 7.90724 8.48812C6.66301 8.29073 5.40496 8.05105 4.16072 7.86777C3.91188 7.82547 3.8151 7.74087 3.73216 7.51529C3.23446 6.18999 3.38654 5.54143 4.43722 4.5968C5.4879 3.65217 6.67683 2.97542 8.10079 2.90492C8.58466 2.87673 9.08235 2.96132 9.56622 3.04591C10.2713 3.1728 10.9625 3.35609 11.6676 3.51118C11.8197 3.53938 11.9856 3.53938 12.2759 3.55348C11.2667 1.8757 9.73211 1.59372 8.03166 1.53732C8.39111 0.931067 8.81968 0.451701 9.42797 0.240216C10.8519 -0.267347 12.1515 0.0428306 13.2713 1.04386C13.8104 1.52322 14.0316 3.07411 13.6722 3.69447C13.5754 3.84956 13.368 3.97645 13.1883 4.04694C12.8012 4.21613 12.663 4.42761 12.8427 4.82239C12.9395 5.01977 13.0639 5.21716 13.2021 5.38635C14.4878 6.92313 14.1699 9.20717 13.0362 10.603C12.4694 11.3079 11.6814 11.5476 10.8104 11.5194C9.70447 11.4771 8.59848 11.4489 7.50632 11.3643C6.77361 11.3079 6.05472 11.181 5.33583 11.0964C5.11463 11.0682 4.83814 10.8708 4.68607 11.1951C4.57547 11.4489 4.81049 11.8437 5.15611 11.9424C5.7091 12.1116 6.26209 12.323 6.84273 12.3794C8.15609 12.5063 9.48327 12.5204 10.8104 12.6614C11.5985 12.746 12.4003 12.9011 13.1468 13.169C14.2943 13.5638 14.7229 14.2687 14.7229 15.5094C14.7229 17.0039 14.1699 18.16 12.815 18.8509C12.5524 18.9778 12.3035 19.1329 12.0685 19.3161C11.6399 19.6263 11.6676 19.8801 12.1238 20.1198C12.4141 20.2608 12.7044 20.3736 12.9948 20.5146C14.1146 21.0926 14.8473 22.5448 14.5984 23.6727C14.4325 24.42 13.7551 24.6878 13.1054 24.2931C12.5524 23.9547 11.9994 23.5881 11.3911 23.3766C10.8934 23.2075 10.2989 23.1652 9.77359 23.2498C9.35884 23.3202 8.97175 23.6445 8.61231 23.9124C8.50171 23.997 8.40493 24.2508 8.44641 24.3777C8.48788 24.5046 8.70908 24.6315 8.86115 24.6456C9.28972 24.6878 9.71829 24.6597 10.1469 24.6738C11.0731 24.7019 11.9717 24.8993 12.6768 25.5479C13.7413 26.5207 14.3772 27.7191 14.0869 29.2277C13.8104 30.6517 12.3588 31.8078 10.8381 31.9347C9.93949 32.0052 9.11 31.8078 8.33581 31.3567C7.14688 30.6517 6.20679 29.6789 5.39113 28.5651C5.43261 28.551 5.44643 28.5087 5.46025 28.4523Z" fill="#4991CE"/>
<path d="M28.907 24.871C29.3217 25.6606 29.0314 26.5065 28.2434 26.7885C27.1374 27.1974 25.9899 27.3102 24.8286 27.3947C23.7365 27.4793 22.6582 27.5498 21.566 27.6344C20.7227 27.7049 20.0453 28.1138 19.5061 28.7623C19.1052 29.2417 19.0222 29.7352 19.2711 30.1018C19.5338 30.4824 20.2665 30.7221 20.7365 30.567C20.8748 30.5247 20.9992 30.4401 21.1789 30.3414C21.0268 30.1581 20.9162 30.0031 20.7918 29.8621C20.4877 29.5237 20.5291 29.2558 20.9715 29.1571C21.9116 28.9456 22.8517 28.7482 23.8056 28.6073C24.4554 28.5086 25.119 28.5227 25.8793 28.4945C24.4969 30.0877 23.2664 31.7372 21.0683 31.9769C19.6305 32.132 18.5107 31.4976 17.6951 30.3273C16.9209 29.2135 16.99 28.0151 17.5983 26.8449C18.331 25.435 19.5338 24.7723 21.0683 24.7159C21.4554 24.7018 21.8425 24.7441 22.2296 24.7018C22.4231 24.6736 22.6582 24.5468 22.7688 24.3917C22.8241 24.3212 22.672 24.0251 22.5614 23.8982C21.9116 23.1933 21.096 22.9818 20.2112 23.3342C19.5614 23.588 18.9393 23.9405 18.3172 24.293C17.4186 24.8005 16.7135 24.4199 16.6858 23.3624C16.6582 22.1781 17.4047 20.9656 18.4554 20.4862C18.6904 20.3735 18.9393 20.2889 19.1743 20.162C19.5752 19.9505 19.6029 19.6544 19.2434 19.3865C18.9393 19.1609 18.6213 18.9495 18.3033 18.7803C17.308 18.2586 16.7964 17.3986 16.6858 16.2848C16.6444 15.8618 16.6444 15.4388 16.6997 15.0158C16.8656 13.8174 17.543 13.1689 18.9946 12.8869C19.7549 12.7318 20.5291 12.6895 21.2895 12.619C22.6029 12.4921 23.93 12.4075 25.2434 12.2524C25.5752 12.2101 25.907 11.9987 26.1973 11.7872C26.4185 11.6321 26.5429 11.3642 26.3632 11.0822C26.3079 10.9976 26.1144 10.8989 26.0452 10.9271C24.4692 11.6462 22.7826 11.3924 21.1374 11.4911C20.6812 11.5193 20.225 11.5334 19.7688 11.4488C18.4416 11.2232 17.6674 10.3773 17.4186 8.86869C17.2941 8.13554 17.3218 7.38829 17.3356 6.64105C17.3494 6.17578 17.6121 5.79511 17.9854 5.51313C18.1374 5.40034 18.3172 5.30164 18.4692 5.18885C18.8978 4.87868 18.8978 4.5262 18.4139 4.31472C17.8886 4.08913 17.6259 3.63796 17.6259 3.03171C17.6259 2.77793 17.6398 2.52415 17.6536 2.27036C17.6951 1.49492 18.0683 0.916862 18.7181 0.507991C19.8932 -0.239255 21.4416 -0.154661 22.5199 0.747674C22.7549 0.94506 22.9485 1.21294 23.2526 1.53722C21.5522 1.63591 20.0314 1.86149 19.0775 3.48288C19.6996 3.59567 20.2112 3.53927 20.7227 3.35599C23.0314 2.48185 25.4369 3.1022 27.0683 4.97737C27.7595 5.76691 27.8563 6.81024 27.3033 7.76897C27.2618 7.83946 27.1236 7.90996 27.0406 7.90996C25.5061 7.83946 24.0821 8.40342 22.6029 8.6572C21.9531 8.76999 21.2895 8.84049 20.6397 8.78409C19.7411 8.7136 19.3264 7.79716 19.7549 6.99352C20.1697 6.20398 20.8609 5.80921 21.7181 5.76691C22.7135 5.71052 23.7088 5.69642 24.7042 5.66822C24.8286 5.66822 24.9531 5.66822 25.0775 5.66822C25.3263 5.66822 25.6028 5.58362 25.5752 5.28755C25.5614 5.09016 25.3955 4.80818 25.2296 4.75179C23.1835 4.06094 21.1927 4.17373 19.3679 5.42854C18.5107 6.00659 18.2066 7.00762 18.4692 8.12144C18.7319 9.23526 19.4232 9.88381 20.5015 10.0671C21.6628 10.2645 22.7826 10.0248 23.9024 9.77102C24.6627 9.58774 25.4369 9.39035 26.2111 9.26346C27.5245 9.05197 28.7687 9.70053 29.3494 10.8284C29.8747 11.8577 29.6258 12.9151 28.7134 13.5918C27.8977 14.1981 26.9715 14.3814 25.9761 14.3814C24.8978 14.3955 23.8194 14.4237 22.7549 14.5506C21.884 14.6493 21.1374 15.0863 20.5153 15.7349C19.7688 16.5103 19.6029 17.6946 20.0729 18.7662C20.5568 19.88 21.5383 20.599 22.5199 20.5567C23.1973 20.5285 23.8471 20.0633 23.9853 19.457C23.8194 19.4147 23.6674 19.3724 23.5015 19.3442C23.1973 19.2878 22.8932 19.2878 22.6029 19.2032C21.9807 19.0341 21.5798 18.6111 21.4416 17.9625C21.3033 17.2999 21.5522 16.7782 22.036 16.3411C22.589 15.8477 23.2803 15.7772 23.9853 15.749C24.7595 15.7349 25.5337 15.749 26.3079 15.749C27.3862 15.749 27.9945 16.7077 27.5107 17.7228C27.3862 17.9907 27.1512 18.2163 26.9577 18.4419C26.8747 18.5406 26.7365 18.6111 26.6397 18.7098C26.4185 18.9213 26.4323 19.1609 26.5844 19.4006C26.7641 19.6544 26.9853 19.6121 27.2065 19.457C27.4968 19.2455 27.7733 19.0059 28.0775 18.8226C28.1881 18.7521 28.3678 18.7239 28.4784 18.7662C29.4599 19.2314 30.2203 20.7541 29.9576 21.8256C29.847 22.2768 29.5844 22.7421 29.2526 23.0805C28.1189 24.2507 26.2526 24.434 25.119 23.5598C24.8286 23.3342 24.5798 23.0805 24.2895 22.869C24.1651 22.7844 23.93 22.6716 23.8609 22.7139C23.7365 22.7985 23.6674 23.01 23.6535 23.1792C23.5844 23.8136 23.93 24.2507 24.3863 24.6032C25.5061 25.4491 26.7365 25.576 28.0498 25.1812C28.3125 25.0825 28.6028 24.9697 28.907 24.871Z" fill="#4991CE"/>
<path d="M3.20671 15.3402C3.02699 15.8478 2.86109 16.3272 2.69519 16.8206C2.66754 16.9052 2.63989 17.018 2.65372 17.1167C2.80579 17.723 2.46017 17.9204 2.00395 18.1459C1.57538 18.3574 1.20211 18.6817 0.828846 18.9919C0.593824 19.1893 0.455576 19.147 0.289679 18.9214C-0.0282916 18.4984 -0.0144669 17.9908 0.0131827 17.4974C0.0684819 16.44 0.427927 15.5235 1.25741 14.8468C1.39566 14.734 1.65833 14.6494 1.81041 14.7058C2.29427 14.875 2.76432 15.1288 3.20671 15.3402Z" fill="#4A92CE"/>
<path d="M30.8286 19.1188C30.1788 18.6676 29.5429 18.2446 28.9208 17.8076C28.8378 17.7512 28.7272 17.6102 28.7272 17.5256C28.7964 16.736 28.5475 16.0311 28.119 15.3543C28.6166 15.1288 29.1005 14.9173 29.5844 14.6917C29.9023 14.5366 30.0959 14.7763 30.2618 14.9455C31.0913 15.7773 31.4092 16.8065 31.3539 17.9768C31.3263 18.4138 31.2019 18.8086 30.8286 19.1188Z" fill="#4A92CE"/>
<path d="M93.7916 23.5401C93.7916 17.7524 93.7916 12.0033 93.7916 6.3313C96.2508 6.3313 98.6722 6.02261 101.018 6.40846C104.045 6.91006 105.974 9.1094 106.428 12.1962C106.731 14.164 106.655 16.2862 106.239 18.254C105.558 21.3408 103.061 23.3472 99.9586 23.5401C97.9912 23.6559 95.9481 23.5401 93.7916 23.5401ZM97.0453 20.9549C97.6507 20.9549 98.1425 20.9549 98.6344 20.9549C101.245 20.9549 102.834 19.6431 103.25 17.0193C103.439 15.9003 103.402 14.7042 103.364 13.5467C103.25 9.88109 100.602 7.91327 97.0832 8.91647C97.0453 12.8521 97.0453 16.8264 97.0453 20.9549Z" fill="#4992CE"/>
<path d="M120.616 17.1353C120.616 20.7623 118.838 23.2317 116 23.7333C111.801 24.4278 108.85 21.997 108.623 17.5983C108.433 14.0099 110.022 11.3476 112.86 10.5373C117.211 9.26398 120.616 12.1964 120.616 17.1353ZM117.589 17.0967C117.362 16.1707 117.249 15.2832 116.946 14.4344C116.568 13.3926 115.735 12.8524 114.638 12.8524C113.503 12.8524 112.671 13.4697 112.293 14.5115C111.649 16.1707 111.649 17.907 112.255 19.5661C112.633 20.6079 113.428 21.2253 114.6 21.2253C115.735 21.2253 116.606 20.7237 116.984 19.6819C117.287 18.8716 117.4 18.0227 117.589 17.0967Z" fill="#4B92CE"/>
<path d="M130.529 19.1804C131.437 19.1804 132.383 19.1804 133.291 19.1804C133.631 20.9167 131.929 23.0388 129.848 23.6176C126.064 24.698 122.697 22.4601 122.394 18.4472C122.281 16.8653 122.432 15.2061 122.886 13.7013C123.529 11.4634 125.535 10.3058 127.994 10.2673C130.188 10.2673 132.004 11.0004 132.95 13.1997C133.215 13.8171 133.291 14.5116 133.48 15.2833C132.383 15.2833 131.475 15.2833 130.529 15.2833C130.491 15.2447 130.415 15.2061 130.415 15.129C129.999 13.547 129.205 12.8139 127.994 12.8524C126.745 12.891 125.8 13.7785 125.61 15.3605C125.497 16.4794 125.497 17.5984 125.573 18.7173C125.686 20.1836 126.518 21.1096 127.653 21.2253C129.129 21.3797 129.848 20.8781 130.529 19.1804Z" fill="#4C93CE"/>
<path d="M57.9622 17.0582C57.9622 13.8171 59.4756 11.3863 61.9348 10.576C65.8696 9.30269 69.3882 11.965 69.6909 16.4795C69.9179 19.7592 68.4423 22.5373 65.9831 23.5019C62.0483 25.0067 58.227 22.3058 58 17.8685C57.9244 17.5984 57.9622 17.3283 57.9622 17.0582ZM67.4965 16.6724C67.4587 16.6724 67.383 16.6338 67.3452 16.6338C67.3073 16.2865 67.3073 15.9393 67.2695 15.592C66.929 13.6242 65.6426 12.2737 63.9779 12.1965C62.351 12.1194 60.989 13.2383 60.4971 15.0904C60.0809 16.6724 60.1188 18.2158 60.762 19.7206C61.3295 21.0711 62.3132 21.8428 63.8265 21.8813C65.3399 21.8813 66.3615 21.1482 66.8911 19.7592C67.156 18.7946 67.2695 17.7142 67.4965 16.6724Z" fill="#464847"/>
<path d="M50.4333 14.7044C51.7575 12.1192 53.006 9.80414 54.1032 7.41188C54.5951 6.29292 55.2761 5.8299 56.4111 6.02282C56.7138 6.06141 57.0165 6.02282 57.4705 6.02282C57.3191 6.40867 57.2056 6.71735 57.0543 6.98744C55.4274 10.0356 53.7627 13.0453 52.1737 16.0935C51.871 16.7108 51.6818 17.4439 51.6818 18.177C51.6061 19.9519 51.644 21.7268 51.644 23.5789C50.8873 23.5789 50.1684 23.5789 49.2982 23.5789C49.2982 21.9198 49.3739 20.1835 49.2604 18.4857C49.2226 17.6369 48.9956 16.7494 48.6172 16.0163C46.9147 12.7366 45.1364 9.49546 43.3204 6.06141C44.1906 6.06141 44.9094 5.98424 45.5905 6.1C45.8931 6.13858 46.2336 6.52443 46.4228 6.87169C47.747 9.37971 49.0334 11.9263 50.4333 14.7044Z" fill="#454645"/>
<path d="M80.0955 22.6916C79.3766 23.0388 78.7713 23.4633 78.0903 23.6562C74.6095 24.6208 72.2638 22.8073 72.2259 19.1418C72.1881 16.3251 72.2259 13.5084 72.2259 10.6145C72.9448 10.6145 73.6636 10.6145 74.496 10.6145C74.496 11.3862 74.496 12.2351 74.496 13.0454C74.496 15.129 74.4582 17.2125 74.496 19.2961C74.5338 21.0324 75.4419 21.9199 77.0309 21.8813C78.8848 21.8427 79.982 20.8395 79.982 19.1804C79.982 16.3251 79.982 13.5084 79.982 10.6145C80.7765 10.6145 81.4954 10.6145 82.2899 10.6145C82.2899 14.8974 82.2899 19.2189 82.2899 23.6176C81.6467 23.6176 80.9657 23.6176 80.2468 23.6176C80.209 23.3089 80.1712 23.0003 80.0955 22.6916Z" fill="#484A49"/>
<path d="M85.695 10.576C86.4138 10.576 87.057 10.576 87.738 10.576C87.8137 10.8846 87.8515 11.1547 87.9272 11.502C88.0407 11.4634 88.1542 11.4634 88.2299 11.3862C88.4569 11.1933 88.6839 10.8846 88.9487 10.846C89.8189 10.6531 90.6891 10.4216 91.5593 10.5374C91.7485 10.576 91.8242 11.8107 91.9377 12.3894C91.7107 12.5438 91.6728 12.6209 91.5972 12.6209C88.5326 12.5824 87.8894 13.2383 87.8894 16.3637C87.8894 18.7559 87.8894 21.1482 87.8894 23.6176C87.1327 23.6176 86.4517 23.6176 85.695 23.6176C85.695 19.2575 85.695 14.9746 85.695 10.576Z" fill="#454746"/>
</svg>
