<svg width="32" height="32" viewBox="0 0 32 32" fill="none" xmlns="http://www.w3.org/2000/svg">
<g clip-path="url(#clip0_12_732)">
<path d="M13.3333 25.3334V18.6667H18.6667V25.3334C18.6667 26.0667 19.2667 26.6667 20 26.6667H24C24.7333 26.6667 25.3333 26.0667 25.3333 25.3334V16H27.6C28.2133 16 28.5067 15.24 28.04 14.84L16.8933 4.80002C16.3867 4.34669 15.6133 4.34669 15.1067 4.80002L3.96001 14.84C3.50668 15.24 3.78668 16 4.40001 16H6.66668V25.3334C6.66668 26.0667 7.26668 26.6667 8.00001 26.6667H12C12.7333 26.6667 13.3333 26.0667 13.3333 25.3334Z" fill="#0C99FF"/>
</g>
<defs>
<clipPath id="clip0_12_732">
<rect width="32" height="32" fill="white"/>
</clipPath>
</defs>
</svg>
