<svg width="60" height="61" viewBox="0 0 60 61" fill="none" xmlns="http://www.w3.org/2000/svg">
<path d="M24.3584 22.9454C24.3584 22.9454 23.4777 20.1918 27.0323 20.2452H32.396C34.689 20.1994 36.1489 20.9241 35.6967 22.9531L24.3584 22.9454Z" fill="#D4D6E3"/>
<path d="M30.0396 20.2372V14.0435" stroke="black" stroke-width="1.5" stroke-miterlimit="10"/>
<path d="M30.0393 14.0434C31.0647 14.0434 31.8959 13.2443 31.8959 12.2585C31.8959 11.2728 31.0647 10.4736 30.0393 10.4736C29.0139 10.4736 28.1826 11.2728 28.1826 12.2585C28.1826 13.2443 29.0139 14.0434 30.0393 14.0434Z" fill="black" stroke="black" stroke-width="0.5" stroke-miterlimit="10"/>
<g opacity="0.5">
<path d="M30.0396 6.33946V1V6.33946Z" fill="#D6D6E0"/>
<path d="M30.0396 6.33946V1" stroke="#CCCCCC" stroke-width="2" stroke-miterlimit="10" stroke-linecap="round"/>
</g>
<path opacity="0.5" d="M33.5229 8.35296L36.7999 5.10352" stroke="#CCCCCC" stroke-width="2" stroke-miterlimit="10" stroke-linecap="round"/>
<path opacity="0.5" d="M26.4058 8.31482L23.1289 5.10352" stroke="#B3B3B3" stroke-width="2" stroke-miterlimit="10" stroke-linecap="round"/>
<path d="M21.1371 22.9605L38.1564 22.8613C38.8687 22.9191 39.5605 23.1193 40.1876 23.449C40.8148 23.7787 41.3634 24.2306 41.7983 24.7759C42.5123 25.7354 42.8369 26.9128 42.7108 28.0864L16.8843 28.0253C16.9543 26.6895 17.5169 25.4213 18.4712 24.4479C19.2013 23.7266 20.1235 23.2121 21.1371 22.9605Z" fill="#A3A2C4"/>
<path d="M16.5431 28.1548C12.9321 29.3206 9.80708 31.5722 7.62976 34.577C5.45245 37.5817 4.3384 41.1802 4.45227 44.8405C4.56614 48.5008 5.90187 52.0288 8.26208 54.9031C10.6223 57.7774 13.8817 59.8455 17.5587 60.8018L41.9332 61.0001C45.7198 60.1183 49.0975 58.0592 51.5418 55.1425C53.9861 52.2258 55.3601 48.6149 55.4506 44.8704C55.541 41.1259 54.3428 37.4575 52.042 34.4349C49.7412 31.4123 46.4665 29.2046 42.7267 28.1548H16.5431Z" fill="#D5D6E1"/>
<path d="M5.06215 38.4068C4.18547 38.1411 3.23833 38.1899 2.39619 38.5441C1.83258 38.8194 1.3434 39.217 0.967418 39.7056C0.591438 40.1941 0.338994 40.7602 0.230093 41.3588C0.150748 43.159 0.0793441 44.9515 0 46.7516C0.183081 47.6515 0.688434 48.4612 1.42819 49.04C1.93296 49.4022 2.51499 49.6523 3.13238 49.7724C3.74977 49.8924 4.38717 49.8793 4.99867 49.7341C4.58227 47.6461 4.40665 45.5204 4.47501 43.3954C4.52232 41.7195 4.71875 40.0505 5.06215 38.4068Z" fill="#A0A1C1"/>
<path d="M54.938 49.65C55.8174 49.9155 56.7669 49.8667 57.6119 49.5127C58.1755 49.2374 58.6647 48.8398 59.0407 48.3512C59.4166 47.8627 59.6691 47.2967 59.778 46.698C59.8494 44.9055 59.9287 43.1053 60.0001 41.3128C59.8198 40.4137 59.3172 39.604 58.5799 39.0244C58.0749 38.6627 57.4928 38.4129 56.8755 38.2928C56.2582 38.1728 55.621 38.1856 55.0094 38.3303C55.7489 42.0646 55.7247 45.9017 54.938 49.6271V49.65Z" fill="#A3A1C4"/>
<path d="M19.5978 31.7251C16.8109 32.3133 14.2912 33.7393 12.4038 35.7964C10.5164 37.8536 9.35945 40.4351 9.10055 43.1668C8.83144 46.068 9.57958 48.9724 11.2259 51.4176C12.8722 53.8629 15.322 55.7084 18.1855 56.6604L40.4018 56.8816C43.4685 56.3604 46.2462 54.8175 48.2474 52.5236C50.2487 50.2297 51.3455 47.3315 51.3455 44.3377C51.3455 41.3438 50.2487 38.4456 48.2474 36.1517C46.2462 33.8579 43.4685 32.3149 40.4018 31.7937L19.5978 31.7251Z" fill="#A4A3C1"/>
<path d="M39.7038 33.2806L19.2489 55.2257C16.7573 54.4413 14.6049 52.8879 13.1259 50.8068C11.6468 48.7257 10.924 46.2333 11.0697 43.7167C11.2153 41.2001 12.2212 38.8002 13.9312 36.8896C15.6412 34.9791 17.9596 33.6648 20.5263 33.1509L39.3706 33.2195C39.483 33.2325 39.5943 33.2529 39.7038 33.2806Z" fill="#343551"/>
<path d="M49.2961 44.3187C49.2874 47.0019 48.2829 49.594 46.4632 51.6286C44.6436 53.6631 42.1284 55.0066 39.3702 55.4171L19.2485 55.2264L39.7034 33.2812C42.3926 33.7522 44.825 35.1144 46.5776 37.131C48.3302 39.1476 49.2922 41.6909 49.2961 44.3187Z" fill="#25273E"/>
<path d="M23.906 39.2074C24.0491 38.9674 24.2432 38.7592 24.4756 38.5962C24.708 38.4333 24.9736 38.3192 25.2549 38.2615C25.5641 38.2097 25.8817 38.2297 26.1813 38.32C26.4808 38.4102 26.7535 38.568 26.9767 38.7802C27.2431 39.1066 27.3878 39.5095 27.3878 39.9244C27.3878 40.3393 27.2431 40.7421 26.9767 41.0685L24.2075 43.9595L21.0338 40.977C20.7695 40.6887 20.6116 40.3247 20.5843 39.9413C20.5571 39.558 20.6621 39.1767 20.883 38.8565C21.0774 38.64 21.3229 38.4716 21.5991 38.3654C21.8753 38.2592 22.1739 38.2183 22.4699 38.2463C22.769 38.2924 23.0535 38.4028 23.3021 38.5692C23.5508 38.7355 23.7572 38.9537 23.906 39.2074Z" fill="#D3FC62"/>
<path d="M35.7682 39.2078C35.9101 38.9669 36.1038 38.758 36.3364 38.5949C36.569 38.4318 36.8352 38.3182 37.1171 38.2619C37.4263 38.2107 37.7437 38.2311 38.0431 38.3213C38.3426 38.4115 38.6153 38.5689 38.8388 38.7806C39.1026 39.1081 39.2458 39.5106 39.2458 39.9248C39.2458 40.339 39.1026 40.7415 38.8388 41.069L36.0697 43.9599L32.896 40.9774C32.6342 40.6879 32.4778 40.3242 32.4506 39.9415C32.4233 39.5587 32.5268 39.1779 32.7452 38.8569C32.94 38.6409 33.1856 38.4729 33.4616 38.3667C33.7377 38.2605 34.0361 38.2194 34.3321 38.2467C34.6303 38.2954 34.9136 38.4068 35.1619 38.5729C35.4101 38.7391 35.6172 38.9558 35.7682 39.2078Z" fill="#D3FC62"/>
<path d="M26.0723 48.4142C26.8102 52.7239 32.4198 52.5942 33.5465 48.2388" stroke="#D3FC62" stroke-width="1.3" stroke-miterlimit="10" stroke-linecap="round"/>
</svg>
