<?xml version="1.0" encoding="UTF-8"?>
<!DOCTYPE svg PUBLIC "-//W3C//DTD SVG 1.1//EN" "http://www.w3.org/Graphics/SVG/1.1/DTD/svg11.dtd">
<svg xmlns="http://www.w3.org/2000/svg" version="1.1" width="800px" height="244px" style="shape-rendering:geometricPrecision; text-rendering:geometricPrecision; image-rendering:optimizeQuality; fill-rule:evenodd; clip-rule:evenodd" xmlns:xlink="http://www.w3.org/1999/xlink">
<g><path style="opacity:0.978" fill="#12183d" d="M 261.5,73.5 C 268.167,73.5 274.833,73.5 281.5,73.5C 281.5,89.1667 281.5,104.833 281.5,120.5C 296.5,120.5 311.5,120.5 326.5,120.5C 326.5,104.833 326.5,89.1667 326.5,73.5C 333.5,73.5 340.5,73.5 347.5,73.5C 347.5,109.833 347.5,146.167 347.5,182.5C 340.5,182.5 333.5,182.5 326.5,182.5C 326.5,167.833 326.5,153.167 326.5,138.5C 311.5,138.5 296.5,138.5 281.5,138.5C 281.5,153.167 281.5,167.833 281.5,182.5C 274.833,182.5 268.167,182.5 261.5,182.5C 261.5,146.167 261.5,109.833 261.5,73.5 Z"/></g>
<g><path style="opacity:0.986" fill="#12173d" d="M 682.5,73.5 C 691.5,73.5 700.5,73.5 709.5,73.5C 721.427,109.614 733.76,145.614 746.5,181.5C 738.862,182.497 731.196,182.831 723.5,182.5C 721.167,174.5 718.833,166.5 716.5,158.5C 702.817,158.167 689.15,158.501 675.5,159.5C 672.927,167.055 670.26,174.555 667.5,182C 660.174,182.5 652.841,182.666 645.5,182.5C 657.632,146.104 669.965,109.771 682.5,73.5 Z M 695.5,98.5 C 700.739,112.216 705.405,126.216 709.5,140.5C 700.161,140.666 690.827,140.5 681.5,140C 686.465,126.271 691.132,112.438 695.5,98.5 Z"/></g>
<g><path style="opacity:0.981" fill="#12183d" d="M 756.5,73.5 C 763.167,73.5 769.833,73.5 776.5,73.5C 776.5,109.833 776.5,146.167 776.5,182.5C 769.833,182.5 763.167,182.5 756.5,182.5C 756.5,146.167 756.5,109.833 756.5,73.5 Z"/></g>
<g><path style="opacity:0.979" fill="#12173d" d="M 600.5,84.5 C 607.167,84.5 613.833,84.5 620.5,84.5C 620.5,90.5 620.5,96.5 620.5,102.5C 626.5,102.5 632.5,102.5 638.5,102.5C 638.5,108.5 638.5,114.5 638.5,120.5C 632.5,120.5 626.5,120.5 620.5,120.5C 620.333,132.505 620.5,144.505 621,156.5C 622.684,162.773 626.851,165.773 633.5,165.5C 634.894,165.379 636.228,165.046 637.5,164.5C 638.496,170.463 638.829,176.463 638.5,182.5C 631.094,182.848 623.761,182.348 616.5,181C 607.048,176.933 601.882,169.766 601,159.5C 600.5,146.504 600.333,133.504 600.5,120.5C 596.167,120.5 591.833,120.5 587.5,120.5C 587.5,114.5 587.5,108.5 587.5,102.5C 593.425,103.125 597.591,100.792 600,95.5C 600.499,91.8484 600.665,88.1817 600.5,84.5 Z"/></g>
<g><path style="opacity:0.987" fill="#12173d" d="M 398.5,100.5 C 428.745,101.582 442.578,117.249 440,147.5C 421.243,148.493 402.41,148.826 383.5,148.5C 387.095,162.638 396.095,168.138 410.5,165C 415.196,163.135 419.196,160.302 422.5,156.5C 427.974,158.402 432.974,161.069 437.5,164.5C 430.037,177.569 418.704,183.902 403.5,183.5C 380.776,182.402 367.276,170.736 363,148.5C 361.055,121.983 372.888,105.983 398.5,100.5 Z M 397.5,117.5 C 408.801,116.163 416.135,120.83 419.5,131.5C 407.852,132.499 396.186,132.832 384.5,132.5C 385.678,124.662 390.011,119.662 397.5,117.5 Z"/></g>
<g><path style="opacity:0.985" fill="#12173d" d="M 483.5,100.5 C 496.305,99.4012 507.139,103.401 516,112.5C 517,114.5 518,116.5 519,118.5C 520.466,139.767 520.966,161.1 520.5,182.5C 514.5,182.5 508.5,182.5 502.5,182.5C 502.664,179.813 502.497,177.146 502,174.5C 497.642,178.763 492.475,181.597 486.5,183C 473.749,185.942 462.916,182.775 454,173.5C 446.313,153.709 452.813,141.209 473.5,136C 482.791,134.174 492.124,132.674 501.5,131.5C 499.574,120.106 492.908,115.939 481.5,119C 476.091,121.079 471.925,124.579 469,129.5C 463.614,127.224 458.447,124.557 453.5,121.5C 459.708,109.064 469.708,102.064 483.5,100.5 Z M 500.5,146.5 C 500.774,162.714 492.774,169.547 476.5,167C 470.623,163.196 469.956,158.529 474.5,153C 483.129,150.292 491.796,148.125 500.5,146.5 Z"/></g>
<g><path style="opacity:0.99" fill="#12173d" d="M 571.5,101.5 C 574.833,101.5 578.167,101.5 581.5,101.5C 581.5,107.5 581.5,113.5 581.5,119.5C 568.529,117.054 560.363,122.054 557,134.5C 556.5,150.497 556.333,166.497 556.5,182.5C 549.833,182.5 543.167,182.5 536.5,182.5C 536.5,155.833 536.5,129.167 536.5,102.5C 542.833,102.5 549.167,102.5 555.5,102.5C 555.336,105.187 555.503,107.854 556,110.5C 559.996,105.259 565.163,102.259 571.5,101.5 Z"/></g>
</svg>
